inDegrees=no
num_controls=7
num_derivatives=13
num_iterations=87
num_multipliers=7
num_parameters=0
num_slacks=7
num_states=26
objective=0.454419
objective_accelerations=0.044392
objective_balance=0.000809
objective_effort=0.036385
objective_height=0.366730
objective_ligament=0.006104
solver_duration=999.026677
status=Solve_Succeeded
success=true
DataType=double
version=3
OpenSimVersion=4.5
endheader
time	/jointset/ground_pelvis/pelvis_tilt/value	/jointset/ground_pelvis/pelvis_tx/value	/jointset/ground_pelvis/pelvis_ty/value	/jointset/hip_r/hip_flexion_r/value	/jointset/hip_r/hip_adduction_r/value	/jointset/hip_r/hip_rotation_r/value	/jointset/back/lumbar_extension/value	/jointset/patellofemoral_r/patellar_flexion_r/value	/jointset/knee_r/knee_flexion_r/value	/jointset/knee_r/knee_adduction_r/value	/jointset/knee_r/knee_rotation_r/value	/jointset/ankle_r/ankle_angle_r/value	/jointset/subtalar_r/subtalar_angle_r/value	/jointset/ground_pelvis/pelvis_tilt/speed	/jointset/ground_pelvis/pelvis_tx/speed	/jointset/ground_pelvis/pelvis_ty/speed	/jointset/hip_r/hip_flexion_r/speed	/jointset/hip_r/hip_adduction_r/speed	/jointset/hip_r/hip_rotation_r/speed	/jointset/back/lumbar_extension/speed	/jointset/patellofemoral_r/patellar_flexion_r/speed	/jointset/knee_r/knee_flexion_r/speed	/jointset/knee_r/knee_adduction_r/speed	/jointset/knee_r/knee_rotation_r/speed	/jointset/ankle_r/ankle_angle_r/speed	/jointset/subtalar_r/subtalar_angle_r/speed	/forceset/tau_hip_flexion_r	/forceset/tau_hip_adduction_r	/forceset/tau_hip_rotation_r	/forceset/tau_knee_flexion_r	/forceset/tau_ankle_angle_r	/forceset/tau_subtalar_angle_r	/forceset/tau_lumbar_extension	lambda_cid13_p0	lambda_cid14_p0	lambda_cid14_p1	lambda_cid14_p2	lambda_cid14_p3	lambda_cid14_p4	lambda_cid14_p5	/jointset/ground_pelvis/pelvis_tilt/accel	/jointset/ground_pelvis/pelvis_tx/accel	/jointset/ground_pelvis/pelvis_ty/accel	/jointset/hip_r/hip_flexion_r/accel	/jointset/hip_r/hip_adduction_r/accel	/jointset/hip_r/hip_rotation_r/accel	/jointset/back/lumbar_extension/accel	/jointset/patellofemoral_r/patellar_flexion_r/accel	/jointset/knee_r/knee_flexion_r/accel	/jointset/knee_r/knee_adduction_r/accel	/jointset/knee_r/knee_rotation_r/accel	/jointset/ankle_r/ankle_angle_r/accel	/jointset/subtalar_r/subtalar_angle_r/accel	gamma_cid13_p0	gamma_cid14_p0	gamma_cid14_p1	gamma_cid14_p2	gamma_cid14_p3	gamma_cid14_p4	gamma_cid14_p5
0	-0.007334689000541212	0.13179622374179	0.9332769872796054	0.1934211968871041	-0.2294104121118546	-0.2398404936020684	-0.2903787966825928	0.2311786273363389	0.2311786273363406	0.1352846847581053	0.1723095926430553	0.089344008118978	0.06232149941287553	0	0	0	0	0	0	0	0	0	0	0	0	0	0.09460683690850764	-0.03986513786577134	0.00449906037085932	-0.2238092800429715	0.09698661327918508	-0.09915241035074435	-0.01859086352173116	-29.91346443352814	-15.6986909110422	-40.56804261085124	0.9013061157388511	7.271514643767218	-609.9509117102091	30.75217797916801	-1.529073583098863	-1.834717379556548	-0.8203282713661725	9.384565890844623	-0.3147653697002685	2.518513246870348	-6.203120720462386	9.96341388887628	9.963413888875897	-1.876576798813573	0.2977160034892611	2.61820483543965	0.3317264033793756	4.062565853424513e-08	2.755187529519022e-08	-3.081245444973118e-07	1.771284071603529e-07	5.157155044494784e-09	1.523364787953153e-07	-2.292205675296624e-07
0.01	-0.007405818206704115	0.1317069717174849	0.9332370720439815	0.1938767976994751	-0.2294250431615536	-0.2397128670153646	-0.290690007788195	0.2316674893617928	0.231667489361795	0.1351912291930404	0.1723196784818694	0.08947428163531441	0.06233924621216086	-0.01420454164940865	-0.01762568127107294	-0.007965911694605908	0.090592787878573	-0.002959078344833311	0.025453944837736	-0.06181078101572907	0.09737274081853145	0.09737274081852869	-0.01850444550777934	0.001988141727354039	0.02612404653288905	0.003530048244754612	0.09558906803735845	-0.05621747748075396	0.004207335424490761	-0.2312919475582958	0.1068992952455458	-0.08909469844904933	-0.01803423963398625	-29.91854542884361	-11.98042338760011	-35.53006383243378	0.07655613201866494	2.598045515046219	-611.4140652825686	42.05460057379711	-1.362952281255026	-1.692783930927674	-0.78212183669027	8.817528597641395	-0.291426196435162	2.54816837811979	-6.105340776455832	9.564246412365316	9.564246412365074	-1.809411898342074	0.1450462909486419	2.6199137462516	0.3607195404090005	5.235066211722538e-08	4.873110291472043e-09	-4.116841618843415e-07	1.878840484778814e-07	3.445913927213412e-08	1.221198695965752e-08	-2.792929816890406e-07
0.02	-0.007618354394437382	0.1314482047944602	0.9331180178477753	0.1952225050628858	-0.2294702544206136	-0.2393328343251053	-0.2916063835008201	0.2331180872422371	0.233118087242239	0.1349183224785988	0.1723487823446737	0.08986787745378638	0.06239170859497083	-0.02828139631455416	-0.03390297974394767	-0.01582779211647776	0.1780213102082507	-0.006116041872083664	0.05048122071125616	-0.1210329214045667	0.1923471709980135	0.1923471709980077	-0.03589022987883882	0.003803604798313667	0.05266446042730241	0.006943116704929802	0.09657129916619139	-0.07256981709572451	0.003915610478126987	-0.2387746150736206	0.1168119772119123	-0.07903698654733815	-0.01747761574626286	-29.93337838801088	-8.185405917858633	-30.495183524393	-0.7288086555197848	-2.0580373551397	-611.6621843971989	53.12183808518004	-1.503536186246252	-1.565040819916894	-0.7995220168193623	8.751712781065555	-0.3543424061836755	2.433179454027179	-5.68539259508411	9.483751761066401	9.483751761065962	-1.652844571469606	0.2631802722103758	2.701478307744528	0.308330446463497	6.407566570020562e-08	-1.780565471224613e-08	-5.152437792713712e-07	1.986396897954099e-07	6.376112349977345e-08	-1.279125048760002e-07	-3.293653958484187e-07
0.03	-0.007971013744769294	0.1310317439357593	0.9329206675673759	0.197428419669394	-0.2295478330982995	-0.2387056883378505	-0.293102100722354	0.2355058197689717	0.2355058197689746	0.1344770690867395	0.172395858496923	0.09052645809216153	0.06247724585651896	-0.04219340964150588	-0.04932999616688815	-0.02363805818148803	0.2627681472475623	-0.00939321357686917	0.07484374750096391	-0.1777234008953174	0.2847218167108626	0.2847218167108519	-0.05221622806766157	0.005568388483074051	0.07887665597877681	0.01012340963236679	0.09108759432333538	-0.07120748774428964	0.004510170992117399	-0.2328359942613633	0.1082239562760853	-0.07619716991305008	-0.01298308411510738	-29.95730686294796	-10.81049620857999	-29.61012016105156	-0.9971185912901076	-0.6741954483414567	-612.2249602193499	54.0152809261382	-1.326471318714184	-1.522639808443344	-0.7711741827168026	8.277149459530239	-0.3134652429117559	2.422203679627569	-5.602807325063901	9.042680468196169	9.042680468195671	-1.600906585154888	0.1266859911008887	2.554846416983514	0.3166828661938739	7.362294143638385e-08	-2.851616795105295e-08	-5.875151038383556e-07	2.071130187018187e-07	7.895727723794661e-08	-2.211504470810443e-07	-3.613460729374683e-07
0.04	-0.008461080710927377	0.130462791361837	0.9326453355700516	0.200469998705128	-0.22965799563109	-0.2378380342050608	-0.2951531090785938	0.238802970651194	0.2388029706511947	0.1338768698844669	0.1724592942009259	0.09144191193367882	0.06259334687740346	-0.05576291948024506	-0.06440132278825235	-0.03142413550145964	0.345154196053524	-0.0126328128930851	0.09858284981807237	-0.232091148345804	0.3742308420957925	0.374230842095778	-0.06767939195913478	0.007075515147513785	0.1040391010556367	0.01305586857220648	0.08560388948046095	-0.06984515839285776	0.005104731506135601	-0.226897373449116	0.09963593534025487	-0.07335735327876702	-0.00848855248396463	-29.98911884762128	-13.36483788673546	-28.72798304961799	-1.247468571182803	0.7127593548827886	-611.6773560161939	54.698367804031	-1.435035488603757	-1.493902859601632	-0.7946842678116336	8.279555134395579	-0.3468279284697574	2.308494559507329	-5.2208461870313	8.910627695482576	8.91062769548234	-1.480277711999703	0.2116488681462407	2.491528212821643	0.2587636489440437	8.312531556747338e-08	-3.897991311223274e-08	-6.591413089657514e-07	2.155392896203693e-07	9.38625891103576e-08	-3.134216563040139e-07	-3.929537245199132e-07
0.05	-0.009085583973081989	0.1297452809792806	0.9322920034838428	0.204323981926377	-0.229800559089944	-0.236736382945176	-0.297735755891386	0.2429815236729468	0.2429815236729492	0.1331267572831348	0.1725369423802975	0.09260439008462513	0.06273748796773565	-0.06908062429211642	-0.07900224300504982	-0.03925584632277827	0.4252180782382218	-0.01587688302434601	0.1216349054628515	-0.2840568905509183	0.4610318912948408	0.4610318912948627	-0.08218373442688612	0.008418761960834317	0.1283415310528148	0.01574458507356991	0.08104551810187691	-0.0650684300846726	0.005492216978059012	-0.2242976753693306	0.0969722726487198	-0.07435357647524357	-0.004566337455511263	-30.02748051334777	-14.22399527055521	-29.35299033185051	-1.099948538283592	0.6800762916214305	-611.3196565158247	52.38896409329207	-1.271565013064714	-1.428391102038317	-0.779512606622412	7.806149406762641	-0.3127919278141543	2.286742770544547	-5.127239688025827	8.497646186293331	8.49764618629894	-1.411685930028906	0.09040817890361325	2.382360616890652	0.2696838231318236	7.890270878719896e-08	-5.142797016158591e-08	-6.39538406103857e-07	1.655214825569603e-07	1.002873183142581e-07	-3.923783673744678e-07	-3.498653866106035e-07
0.06	-0.009841549690471456	0.1288847204946924	0.9318599346659548	0.2089658728987262	-0.2299754823245832	-0.2354075747881273	-0.3008266204163833	0.2480146477175242	0.2480146477175295	0.1322363665739385	0.1726269721460074	0.09400644458028867	0.0629076678575613	-0.08205541052742665	-0.09301134319462105	-0.04717148183728796	0.5027357462731498	-0.01910476805000103	0.1440142292508849	-0.3337346907870073	0.5451450466609842	0.5451450466610444	-0.09573501352927842	0.009551832413299485	0.151954369998984	0.01826362847090614	0.07648714672330617	-0.06029170177649274	0.005879702450019642	-0.2216979772895409	0.09430860995718504	-0.07534979967172696	-0.0006441224270470491	-30.07072400843145	-15.01970926559644	-29.98327729816653	-0.9328663672228736	0.644435125690815	-609.967941148414	49.88967311656715	-1.366451773291544	-1.375538854156379	-0.8114692064498458	7.770312304441605	-0.3435909073485744	2.173948188158183	-4.763257793226259	8.373048928901582	8.373048928901749	-1.289665038927902	0.1696135959751606	2.35361000261989	0.2248290281386101	7.410220807381449e-08	-6.395957718517795e-08	-6.160942776424135e-07	1.130428722101002e-07	1.063549703531687e-07	-4.707744679963947e-07	-3.036319544069043e-07
